<?xml version="1.0" encoding="utf-8"?>
<svg version="1.1" id="sticker-dictation-color" xmlns="http://www.w3.org/2000/svg" xmlns:xlink="http://www.w3.org/1999/xlink" x="0px"
	 y="0px" viewBox="0 0 2000 3000" style="enable-background:new 0 0 2000 3000;" preserveAspectRatio="xMidYMid meet"
	 xml:space="preserve">
<style type="text/css">
	.st0{fill:#EAA15E;}
	.st1{fill:#F9BB87;}
	.st2{fill:#64584C;}
	.st3{fill:#5E8FB0;}
	.st4{fill:#776B5F;}
	.st5{fill:#FFE2CA;}
	.st6{fill:#FFFFFF;}
	.st7{fill:#E86843;}
</style>
<g>
	<g>
		<g>
			<g>
				<path class="st0" d="M1804.3,1779.1c-23.1,37.6-90,42.8-149.4,11.8l1-56.4c-59.3-31.1-62.1-76.2-39-113.8l164.1-288.7
					c23.1-37.6,90-42.9,149.3-11.8l0,0c59.3,31.1,88.7,86.7,65.5,124.3L1804.3,1779.1z"/>
			</g>
			<path class="st1" d="M917.3,2335.1l-154.1-86.8c-225.5-94.9-353.6-301.7-286.1-462l193.4-459.4
				c67.5-160.3,304.9-213.2,530.4-118.3l0,0c225.5,94.9,676.2,407.1,608.7,567.3C1809.6,1775.9,1520.4,2532.6,917.3,2335.1z"/>
			<path class="st0" d="M449.7,1584.6l86.1-221.5l467.5-547.5l516.7-239.9l-141.5,319.9l221.5,787.4l18.5,80
				c0,0-584.4,24.6-707.4,92.3c-80.9,44.5-221.5-67.7-221.5-67.7L449.7,1584.6z"/>
			<g>
				<path class="st1" d="M1552.7,854.2c-33.5,28.7-98.8,13.2-145.8-34.5l0,0c-46.9-47.7-57.9-109.7-24.3-138.4l346.9-318.7
					c33.5-28.8,98.8-13.3,145.8,34.4l0,0c47,47.7,57.9,109.7,24.4,138.4L1552.7,854.2z"/>
			</g>
			<g>
				<path class="st0" d="M1701.8,1528.9c-23.1,37.6-90,42.8-149.4,11.8l1-56.4c-59.3-31.1-62.1-76.2-39-113.8l164.1-288.7
					c23.1-37.6,90-42.9,149.3-11.8l0,0c59.3,31.1,88.7,86.7,65.5,124.3L1701.8,1528.9z"/>
			</g>
			<g>
				<path class="st0" d="M1630,1243.9c-23.1,37.6-90,42.8-149.4,11.8l1-56.4c-59.3-31.1-62.1-76.2-39-113.8l164.1-288.7
					c23.1-37.6,90-42.9,149.3-11.8l0,0c59.3,31.1,88.7,86.7,65.5,124.3L1630,1243.9z"/>
			</g>
			<g>
				<path class="st2" d="M1671.9,1693.3c0,41.1-33.3,74.3-74.4,74.3H728.8c-41.1,0-74.4-33.3-74.4-74.3V191.1
					c0-41.1,33.3-74.4,74.4-74.4h868.7c41.1,0,74.4,33.3,74.4,74.4V1693.3z"/>
				<path class="st3" d="M1581,1469.5c0,34.7-28.1,62.8-62.8,62.8h-710c-34.7,0-62.8-28.1-62.8-62.8V311.5
					c0-34.7,28.1-62.8,62.8-62.8h710c34.7,0,62.8,28.1,62.8,62.8V1469.5z"/>
				<path class="st4" d="M1273.8,178.2c0,11.9-9.7,21.6-21.6,21.6h-178.2c-11.9,0-21.6-9.7-21.6-21.6l0,0c0-11.9,9.7-21.6,21.6-21.6
					h178.2C1264.2,156.6,1273.8,166.3,1273.8,178.2L1273.8,178.2z"/>
				<path class="st4" d="M1320.2,1638.3c0,28.6-70.3,51.7-157.1,51.7c-86.8,0-157.1-23.1-157.1-51.7c0-28.6,70.3-51.7,157.1-51.7
					C1249.9,1586.6,1320.2,1609.7,1320.2,1638.3z"/>
			</g>
			<g>
				<path class="st1" d="M1742.5,1302.7c-34.4,27.7-99.1,10.4-144.7-38.7l0,0c-45.5-49-54.7-111.3-20.3-139l136.9-111.6
					c34.3-27.8,99.1-10.5,144.7,38.6l0,0c45.6,49.1,54.7,111.3,20.4,139L1742.5,1302.7z"/>
			</g>
			<path class="st5" d="M1698.6,1276.4l38.5-31.1c27.3-22.1,26.1-65.1-2.7-96.2c-28.9-31.1-74.5-38.4-101.8-16.3l-38.5,31.1
				c0,0,5.5,23.4,40.6,60.6C1678.2,1270.4,1683.1,1268.6,1698.6,1276.4z"/>
			<g>
				<g>
					<path class="st1" d="M1841.9,1565.9c-34.4,27.7-99.1,10.4-144.7-38.7l0,0c-45.5-49-54.7-111.3-20.3-139l136.9-111.6
						c34.3-27.8,99.1-10.4,144.7,38.6l0,0c45.6,49.1,54.7,111.3,20.4,139L1841.9,1565.9z"/>
				</g>
				<path class="st5" d="M1798.1,1539.6l38.5-31.1c27.3-22.1,26.1-65.1-2.7-96.2c-28.9-31.1-74.5-38.4-101.8-16.3l-38.5,31.1
					c0,0,5.5,23.4,40.6,60.6C1777.6,1533.7,1782.6,1531.9,1798.1,1539.6z"/>
			</g>
			<g>
				<g>
					<path class="st1" d="M1747.8,979.1c-43.5,35.1-116.3,24.4-162.9-23.9l0,0c-46.5-48.3-49-116-5.5-151.1l52.5-45.8
						c43.4-35.2,116.3-24.5,162.8,23.9l0,0c46.5,48.3,49,116,5.5,151.1L1747.8,979.1z"/>
				</g>
			</g>
			<g>
				<path class="st1" d="M566.6,2107.4c-89.3-64.3-166.1-264.5-166.1-264.5l-150.3-569.3l398.8-501c0,0,138.2,97.9,82,287.4
					c-56.1,189.5-151.6,324.9-151.6,324.9s462.3,416.8,323.1,641C834.8,2135.3,716.4,2215.3,566.6,2107.4z"/>
				<path class="st5" d="M632.3,793.8L522.8,931.3c2,1.5,3.9,3.1,6.1,4.4c30.7,17.8,69.9,7.3,87.7-23.4l35-60.5
					C666.1,826.8,654,809.1,632.3,793.8z"/>
			</g>
			<path class="st5" d="M1677.8,972.8l31.9-25.7c22.7-18.3,18-58.5-10.5-89.9c-28.5-31.4-70-42-92.7-23.8l-32,25.7
				c0,0,6.9,22.3,41.5,59.8C1659,965.5,1663.3,964.3,1677.8,972.8z"/>
		</g>
		<g>
			<rect x="1086.6" y="789.4" class="st6" width="76.3" height="18.8"/>
			<rect x="1086.6" y="869.8" class="st6" width="76.3" height="18.8"/>
			<rect x="1086.6" y="910" class="st6" width="76.3" height="25.5"/>
			<path class="st6" d="M1184.3,680.5v47.2h69.2C1240.1,702,1214.5,683.6,1184.3,680.5z"/>
			<rect x="1184.3" y="910" class="st6" width="79.1" height="25.5"/>
			<path class="st6" d="M1162.8,749.2h-74.1c-1.3,6.1-2.1,12.3-2.2,18.8h76.3V749.2z"/>
			<path class="st6" d="M1175,1104.5c48.8,0,88.4-39.6,88.4-88.4v-49.8h-176.9v49.8C1086.6,1064.9,1126.2,1104.5,1175,1104.5z"/>
			<path class="st6" d="M1162.8,680.9c-28.9,4-53.3,21.9-66.3,46.8h66.3V680.9z"/>
			<rect x="1086.6" y="829.6" class="st6" width="76.3" height="18.8"/>
			<rect x="1184.3" y="789.4" class="st6" width="79.1" height="18.8"/>
			<path class="st6" d="M1261.3,749.2h-77v18.8h79.1C1263.4,761.5,1262.6,755.2,1261.3,749.2z"/>
			<rect x="1184.3" y="829.6" class="st6" width="79.1" height="18.8"/>
			<rect x="1184.3" y="869.8" class="st6" width="79.1" height="18.8"/>
			<path class="st6" d="M1194.9,1165.1c71.7-9.8,127.1-71.3,127.1-145.7V834.8c0-11-8.9-19.9-19.9-19.9c-11,0-19.9,8.9-19.9,19.9
				v184.6c0,59.1-48.1,107.2-107.2,107.2c-59.1,0-107.3-48.1-107.3-107.2V843.6c0-11-8.9-19.9-19.9-19.9c-11,0-19.9,8.9-19.9,19.9
				v175.8c0,74.3,55.5,135.9,127.2,145.7v67.4c0,0.3,0.1,0.5,0.1,0.8h-66.9c-11,0-19.9,8.9-19.9,19.9c0,11,8.9,19.9,19.9,19.9h173.4
				c11,0,19.9-8.9,19.9-19.9c0-11-8.9-19.9-19.9-19.9h-66.9c0-0.3,0.1-0.5,0.1-0.8V1165.1z"/>
		</g>
	</g>
	<polygon class="st1" points="233.1,2684.7 464.2,1966.7 1229.1,2230.3 1116.5,2854.7 	"/>
	<polygon class="st6" points="76.6,2934.3 1093.7,2930.2 1242.9,2375 395.8,2072.5 	"/>
	<polygon class="st7" points="2.5,2999.5 1131.4,2999.5 1248.3,2471 321.7,2137.6 	"/>
</g>
</svg>
