<?xml version="1.0" encoding="utf-8"?>
<svg version="1.1" id="Illustration" opacity="0.2" xmlns="http://www.w3.org/2000/svg" xmlns:xlink="http://www.w3.org/1999/xlink"
	 x="0px" y="0px" viewBox="0 0 2702.9 3893.4" preserveAspectRatio="xMidYMid meet"
	 style="enable-background:new 0 0 2702.9 3893.4;" xml:space="preserve">
<style type="text/css">
	.st0{fill:#B0B0B0;}
	.st1{fill:#C8C8C8;}
	.st2{fill:#5A5A5A;}
	.st3{fill:#848484;}
	.st4{fill:#6D6D6D;}
	.st5{fill:#E8E8E8;}
	.st6{fill:#FFFFFF;}
	.st7{fill:#8A8A8A;}
</style>
<g>
	<g>
		<g>
			<g>
				<path class="st0" d="M2433.4,2245.1c-31.3,50.8-121.5,57.9-201.7,15.9l1.4-76.2c-80.1-41.9-83.9-102.9-52.6-153.7l221.6-389.9
					c31.2-50.8,121.5-57.9,201.6-16l0,0c80.1,41.9,119.8,117.1,88.5,167.8L2433.4,2245.1z"/>
			</g>
			<path class="st1" d="M1235.4,2996l-208.1-117.2c-304.5-128.2-477.5-407.5-386.4-623.9l261.2-620.5
				c91.1-216.4,411.8-288,716.3-159.8l0,0c304.5,128.2,913.2,549.8,822.1,766.2C2440.4,2240.8,2050,3262.7,1235.4,2996z"/>
			<path class="st0" d="M604,1982.4l116.3-299.1l631.4-739.4l697.9-324l-191.1,432l299.1,1063.4l24.9,108
				c0,0-789.3,33.2-955.4,124.6c-109.2,60.1-299.1-91.4-299.1-91.4L604,1982.4z"/>
			<g>
				<path class="st1" d="M2093.5,996c-45.3,38.8-133.4,17.9-196.9-46.6l0,0c-63.4-64.4-78.2-148.1-32.8-186.9l468.5-430.4
					c45.3-38.8,133.4-18,196.9,46.5l0,0c63.5,64.5,78.2,148.1,32.9,186.9L2093.5,996z"/>
			</g>
			<g>
				<path class="st0" d="M2294.9,1907.3c-31.3,50.8-121.5,57.9-201.7,15.9l1.4-76.2c-80.1-41.9-83.9-102.9-52.6-153.7l221.6-389.9
					c31.2-50.8,121.5-57.9,201.6-16l0,0c80.1,42,119.8,117.1,88.5,167.8L2294.9,1907.3z"/>
			</g>
			<g>
				<path class="st0" d="M2198,1522.4c-31.3,50.8-121.5,57.9-201.7,15.9l1.4-76.2c-80.1-41.9-83.9-102.9-52.6-153.7l221.6-389.9
					c31.2-50.8,121.5-57.9,201.6-16l0,0c80.1,42,119.8,117.1,88.5,167.8L2198,1522.4z"/>
			</g>
			<g>
				<path class="st2" d="M2254.5,2129.3c0,55.4-45,100.4-100.4,100.4H980.9c-55.5,0-100.4-45-100.4-100.4V100.4
					C880.4,45,925.4,0,980.9,0h1173.2c55.4,0,100.4,45,100.4,100.4V2129.3z"/>
				<path class="st3" d="M2131.8,1827.1c0,46.8-38,84.9-84.8,84.9H1088c-46.9,0-84.8-38-84.8-84.9v-1564c0-46.9,38-84.8,84.8-84.8
					h958.9c46.9,0,84.8,38,84.8,84.8V1827.1z"/>
				<path class="st4" d="M1716.9,83.1c0,16.1-13,29.1-29.1,29.1h-240.6c-16.1,0-29.1-13-29.1-29.1l0,0c0-16.1,13-29.1,29.1-29.1
					h240.6C1703.9,53.9,1716.9,67,1716.9,83.1L1716.9,83.1z"/>
				<path class="st4" d="M1779.6,2055c0,38.6-95,69.8-212.1,69.8c-117.2,0-212.1-31.3-212.1-69.8c0-38.6,95-69.8,212.1-69.8
					C1684.6,1985.2,1779.6,2016.4,1779.6,2055z"/>
			</g>
			<g>
				<path class="st1" d="M2349.8,1601.7c-46.4,37.5-133.9,14-195.5-52.2l0,0c-61.5-66.2-73.9-150.3-27.4-187.8l184.9-150.7
					c46.4-37.5,133.9-14.1,195.4,52.2l0,0c61.6,66.3,73.9,150.3,27.5,187.7L2349.8,1601.7z"/>
			</g>
			<path class="st5" d="M2290.6,1566.2l52-42c36.9-29.8,35.3-88-3.7-129.9c-39-42-100.6-51.9-137.5-22.1l-52,42
				c0,0,7.4,31.6,54.8,81.8C2263,1558.2,2269.7,1555.8,2290.6,1566.2z"/>
			<g>
				<g>
					<path class="st1" d="M2484.2,1957.2c-46.4,37.5-133.9,14-195.5-52.2l0,0c-61.5-66.2-73.9-150.3-27.4-187.8l184.9-150.7
						c46.4-37.5,133.9-14.1,195.4,52.2l0,0c61.6,66.3,73.9,150.3,27.5,187.7L2484.2,1957.2z"/>
				</g>
				<path class="st5" d="M2425,1921.7l52-42c36.9-29.8,35.3-88-3.7-129.9c-39-42-100.6-51.9-137.5-22.1l-52,42
					c0,0,7.4,31.6,54.8,81.8C2397.3,1913.7,2404.1,1911.3,2425,1921.7z"/>
			</g>
			<g>
				<g>
					<path class="st1" d="M2357.1,1164.7c-58.7,47.5-157.1,32.9-220-32.3l0,0c-62.7-65.2-66.1-156.6-7.4-204.1l70.9-61.9
						c58.7-47.5,157.1-33,219.9,32.3l0,0c62.8,65.3,66.2,156.6,7.5,204L2357.1,1164.7z"/>
				</g>
			</g>
			<g>
				<path class="st1" d="M761.8,2688.6c-120.6-86.8-224.3-357.3-224.3-357.3l-202.9-768.9l538.6-676.6c0,0,186.7,132.2,110.8,388.1
					c-75.8,256-204.8,438.8-204.8,438.8s624.4,562.9,436.4,865.7C1123.9,2726.2,964.1,2834.2,761.8,2688.6z"/>
				<path class="st5" d="M850.4,914.4l-147.9,185.8c2.7,2,5.2,4.2,8.3,6c41.4,24,94.4,9.9,118.4-31.5l47.3-81.6
					C896.2,959,879.8,935.2,850.4,914.4z"/>
			</g>
			<path class="st5" d="M2262.5,1156.2l43.1-34.8c30.6-24.7,24.2-79-14.2-121.4c-38.5-42.4-94.6-56.8-125.2-32.1l-43.2,34.7
				c0,0,9.3,30.1,56,80.8C2237.1,1146.4,2242.9,1144.7,2262.5,1156.2z"/>
		</g>
		<g>
			<rect x="1464" y="908.5" class="st6" width="103" height="25.4"/>
			<rect x="1464" y="1017.1" class="st6" width="103" height="25.4"/>
			<rect x="1464" y="1071.4" class="st6" width="103" height="34.4"/>
			<path class="st6" d="M1596,761.5v63.8h93.4C1671.3,790.5,1636.8,765.7,1596,761.5z"/>
			<rect x="1596" y="1071.4" class="st6" width="106.9" height="34.4"/>
			<path class="st6" d="M1567,854.2h-100.1c-1.8,8.2-2.9,16.7-2.9,25.4h103V854.2z"/>
			<path class="st6" d="M1583.5,1334.1c66,0,119.4-53.5,119.4-119.4v-67.3H1464v67.3C1464,1280.6,1517.5,1334.1,1583.5,1334.1z"/>
			<path class="st6" d="M1567,762c-39,5.4-72,29.5-89.5,63.2h89.5V762z"/>
			<rect x="1464" y="962.8" class="st6" width="103" height="25.3"/>
			<rect x="1596" y="908.5" class="st6" width="106.9" height="25.4"/>
			<path class="st6" d="M1700,854.2h-104v25.4h106.8C1702.8,870.8,1701.8,862.3,1700,854.2z"/>
			<rect x="1596" y="962.8" class="st6" width="106.9" height="25.3"/>
			<rect x="1596" y="1017.1" class="st6" width="106.9" height="25.4"/>
			<path class="st6" d="M1610.3,1415.9c96.9-13.2,171.7-96.3,171.7-196.7V969.8c0-14.9-12-26.9-26.9-26.9c-14.8,0-26.9,12-26.9,26.9
				v249.4c0,79.9-65,144.8-144.8,144.8c-79.9,0-144.9-65-144.9-144.8V981.8c0-14.8-12-26.9-26.9-26.9c-14.8,0-26.9,12-26.9,26.9
				v237.4c0,100.4,74.9,183.5,171.7,196.7v91c0,0.4,0.1,0.7,0.1,1.1h-90.3c-14.8,0-26.9,12-26.9,26.9c0,14.9,12,26.9,26.9,26.9
				h234.2c14.8,0,26.9-12,26.9-26.9c0-14.8-12-26.9-26.9-26.9h-90.3c0-0.4,0.1-0.7,0.1-1.1V1415.9z"/>
		</g>
	</g>
	<polygon class="st1" points="311.4,3468.3 623.5,2498.5 1656.6,2854.5 1504.4,3697.9 	"/>
	<polygon class="st6" points="100,3805.4 1473.7,3799.8 1675.2,3050 531.1,2641.4 	"/>
	<polygon class="st7" points="0,3893.4 1524.6,3893.4 1682.4,3179.7 431.1,2729.4 	"/>
</g>
</svg>
