<?xml version="1.0" encoding="utf-8"?>
<svg version="1.1" id="Layer_1" xmlns="http://www.w3.org/2000/svg" xmlns:xlink="http://www.w3.org/1999/xlink" x="0px" y="0px"
	 viewBox="-120.5 154.7 45.6 61.6" enable-background="new -120.5 154.7 45.6 61.6" preserveAspectRatio="xMidYMid meet"
	 xml:space="preserve">
<g id="sticker-iron">
	<path d="M-86.2,207.4h-22.9c-0.9,0-1.7-0.7-1.7-1.7s0.7-1.7,1.7-1.7h22.9c0.9,0,1.7,0.7,1.7,1.7S-85.3,207.4-86.2,207.4z"/>
	<path d="M-97.7,174c-0.4,0-0.9-0.2-1.2-0.5c-0.3-0.3-0.5-0.7-0.5-1.2c0-0.4,0.2-0.9,0.5-1.2c0.6-0.6,1.7-0.6,2.4,0
		c0.3,0.3,0.5,0.7,0.5,1.2c0,0.4-0.2,0.9-0.5,1.2C-96.8,173.9-97.3,174-97.7,174z"/>
	<path d="M-103.7,184.2c-0.4,0-0.9-0.2-1.2-0.5c-0.3-0.3-0.5-0.8-0.5-1.2c0-0.4,0.2-0.9,0.5-1.2c0.7-0.6,1.8-0.6,2.4,0
		c0.3,0.3,0.5,0.7,0.5,1.2c0,0.4-0.2,0.9-0.5,1.2C-102.9,184-103.3,184.2-103.7,184.2z"/>
	<path d="M-91.7,184.2c-0.4,0-0.9-0.2-1.2-0.5c-0.3-0.3-0.5-0.7-0.5-1.2s0.2-0.9,0.5-1.2c0.6-0.6,1.7-0.6,2.4,0
		c0.3,0.3,0.5,0.7,0.5,1.2c0,0.4-0.2,0.9-0.5,1.2C-90.8,184-91.2,184.2-91.7,184.2z"/>
	<path d="M-107.4,194.2c-0.4,0-0.9-0.2-1.2-0.5c-0.3-0.3-0.5-0.8-0.5-1.2c0-0.4,0.2-0.8,0.5-1.2c0.6-0.6,1.7-0.6,2.4,0
		c0.3,0.3,0.5,0.8,0.5,1.2c0,0.4-0.2,0.9-0.5,1.2C-106.5,194-107,194.2-107.4,194.2z"/>
	<path d="M-88,194.2c-0.4,0-0.9-0.2-1.2-0.5c-0.3-0.3-0.5-0.8-0.5-1.2c0-0.4,0.2-0.9,0.5-1.2c0.6-0.6,1.7-0.6,2.4,0
		c0.3,0.3,0.5,0.8,0.5,1.2c0,0.4-0.2,0.9-0.5,1.2C-87.1,194-87.6,194.2-88,194.2z"/>
	<path d="M-82.5,216.2h-30.3c-4.2,0-7.6-3.4-7.6-7.6c0-24.9,13.2-46.2,19.6-52.6c0.9-0.9,2-1.4,3.1-1.4c1.6,0,2.8,0.9,3.1,1.2
		c6.3,6.3,19.8,28.2,19.8,52.8C-74.9,212.8-78.3,216.2-82.5,216.2z M-97.8,158c-0.2,0-0.4,0-0.8,0.4c-6.1,6.1-18.6,26.3-18.6,50.2
		c0,2.4,1.9,4.3,4.3,4.3h30.3c2.4,0,4.3-1.9,4.3-4.3c0-23.5-12.8-44.4-18.7-50.3C-97,158.3-97.4,158-97.8,158z"/>
</g>
</svg>
