<svg xmlns="http://www.w3.org/2000/svg" xmlns:xlink="http://www.w3.org/1999/xlink" version="1.1" id="Livello_1" x="0px" y="0px" viewBox="5.0 -10.0 100.0 135.0" enable-background="new 0 0 100 100" xml:space="preserve" height="100px" width="100px">
<g>
	<path d="M16.1,51.7c-0.9,0.6-2.3,1.6-2.3,3.6c0,1,0.8,1.8,1.8,1.8s1.8-0.8,1.8-1.8c0.1-0.1,0.5-0.5,0.8-0.6   c0.9-0.6,2.3-1.6,2.3-3.6c0-2-1.4-3-2.3-3.6c-0.3-0.2-0.7-0.5-0.8-0.6l0-0.1c0.1-0.1,0.5-0.5,0.8-0.6c0.9-0.6,2.3-1.6,2.3-3.6   c0-2-1.4-3-2.3-3.6c-0.3-0.2-0.7-0.5-0.8-0.6l0-0.1c0.1-0.1,0.5-0.5,0.8-0.6c0.9-0.6,2.3-1.6,2.3-3.6c0-1-0.8-1.8-1.8-1.8   c-1,0-1.8,0.8-1.8,1.8c-0.1,0.1-0.5,0.5-0.8,0.6c-0.9,0.6-2.3,1.6-2.3,3.6s1.4,3,2.3,3.6c0.3,0.2,0.7,0.5,0.8,0.6l0,0.1   c-0.1,0.1-0.5,0.5-0.8,0.6c-0.9,0.6-2.3,1.6-2.3,3.6c0,2,1.4,3,2.3,3.6c0.3,0.2,0.7,0.5,0.8,0.6l0,0.1   C16.9,51.2,16.4,51.6,16.1,51.7z"/>
	<path d="M32.3,43c-0.9,0.6-2.3,1.6-2.3,3.6c0,1,0.8,1.8,1.8,1.8c1,0,1.8-0.8,1.8-1.8c0.1-0.1,0.5-0.5,0.8-0.6   c0.9-0.6,2.3-1.6,2.3-3.6c0-2-1.4-3-2.3-3.6c-0.3-0.2-0.7-0.5-0.8-0.6l0-0.1c0.1-0.1,0.5-0.5,0.8-0.6c0.9-0.6,2.3-1.6,2.3-3.6   c0-2-1.4-3-2.3-3.6c-0.3-0.2-0.7-0.5-0.8-0.6l0-0.1c0.1-0.1,0.5-0.5,0.8-0.6c0.9-0.6,2.3-1.6,2.3-3.6c0-1-0.8-1.8-1.8-1.8   c-1,0-1.8,0.8-1.8,1.8c-0.1,0.1-0.5,0.5-0.8,0.6c-0.9,0.6-2.3,1.6-2.3,3.6s1.4,3,2.3,3.6c0.3,0.2,0.7,0.5,0.8,0.6l0,0.1   c-0.1,0.1-0.5,0.5-0.8,0.6C31.4,35,30,36,30,38c0,2,1.4,3,2.3,3.6c0.3,0.2,0.7,0.5,0.8,0.6l0,0.1C33,42.5,32.5,42.8,32.3,43z"/>
	<path d="M48.4,49.2c-0.9,0.6-2.3,1.6-2.3,3.6c0,1,0.8,1.8,1.8,1.8s1.8-0.8,1.8-1.8c0.1-0.1,0.5-0.5,0.8-0.6   c0.9-0.6,2.3-1.6,2.3-3.6c0-2-1.4-3-2.3-3.6c-0.3-0.2-0.7-0.5-0.8-0.6l0-0.1c0.1-0.1,0.5-0.5,0.8-0.6c0.9-0.6,2.3-1.6,2.3-3.6   c0-2-1.4-3-2.3-3.6c-0.3-0.2-0.7-0.5-0.8-0.6l0-0.1c0.1-0.1,0.5-0.5,0.8-0.6c0.9-0.6,2.3-1.6,2.3-3.6c0-1-0.8-1.8-1.8-1.8   s-1.8,0.8-1.8,1.8c-0.1,0.1-0.5,0.5-0.8,0.6c-0.9,0.6-2.3,1.6-2.3,3.6s1.4,3,2.3,3.6c0.3,0.2,0.7,0.5,0.8,0.6l0,0.1   c-0.1,0.1-0.5,0.5-0.8,0.6c-0.9,0.6-2.3,1.6-2.3,3.6c0,2,1.4,3,2.3,3.6c0.3,0.2,0.7,0.5,0.8,0.6l0,0.1C49.1,48.7,48.7,49,48.4,49.2   z"/>
	<path d="M94.8,56.9c-0.3-1-1.2-1.5-2.2-1.3l-31.1,8.3c0.1-1.7-0.7-3.3-2.1-4.3c-0.8-0.6-1.8-0.9-2.8-0.9H10c-0.2,0-0.3,0-0.5,0   C8,59,6.7,59.8,5.9,61c-0.8,1.3-1,2.9-0.5,4.4l2.5,6.9c0.9,2.4,1.8,4.4,4.9,4.4h41c3,0,3.9-2.1,4.9-4.3c0.5-1.1,1.1-2.8,1.7-4.5   l33.2-8.9C94.5,58.8,95,57.8,94.8,56.9z M55.3,71c-0.9,2.1-1,2.1-1.6,2.1h-41c-0.6,0-0.8,0-1.5-2l-2.5-6.9C8.7,63.8,8.8,63.3,9,63   c0.1-0.2,0.4-0.5,0.9-0.6c0,0,0.1,0,0.1,0h46.6c0.3,0,0.6,0.1,0.8,0.2c0.4,0.3,0.6,0.9,0.4,1.5C57.3,65.6,56.1,69.3,55.3,71z"/>
</g>
</svg>